<svg width="156" height="70" viewBox="0 0 156 70" fill="none" xmlns="http://www.w3.org/2000/svg">
<path fill-rule="evenodd" clip-rule="evenodd" d="M145 0H10V5H5V10H0V60H5V65H10V70H145V65H150V60H155.152V10H150V5H145V0Z" fill="white"/>
<path d="M35.0427 36.74H36.3027V35.48H37.5627V30.44H36.3027V29.18H35.0427V27.92H33.7827V26.66H32.5227V22.88H33.7827V21.62H36.3027V22.88H37.5627V24.14H36.3027V26.66H38.8227V25.4H40.0827V22.88H38.8227V21.62H36.3027V20.36H32.5227V21.62H30.0027V24.14H28.7427V26.66H30.0027V29.18H31.2627V30.44H32.5227V31.7H33.7827V32.96H35.0427V35.48H33.7827V36.74H28.7427V32.96H26.2227V36.74H27.4827V38H35.0427V36.74ZM51.4142 34.22H48.8942V35.48H46.3742V36.74H45.1142V35.48H43.8542V34.22H45.1142V30.44H46.3742V27.92H47.6342V24.14H48.8942V21.62H50.1542V20.36H47.6342V21.62H43.8542V22.88H45.1142V26.66H43.8542V29.18H42.5942V32.96H41.3342V38H47.6342V36.74H48.8942V35.48H50.1542V38H55.1942V36.74H56.4542V35.48H53.9342V31.7H55.1942V29.18H56.4542V25.4H57.7142V22.88H58.9742V21.62H55.1942V24.14H53.9342V27.92H52.6742V30.44H51.4142V31.7H50.1542V32.96H51.4142V34.22ZM57.7142 35.48V34.22H58.9742V32.96H57.7142V34.22H56.4542V35.48H57.7142ZM67.8083 25.4H69.0683V24.14H70.3283V22.88H74.1083V31.7H72.8483V32.96H71.5883V34.22H70.3283V35.48H69.0683V36.74H64.0283V35.48H62.7683V34.22H64.0283V31.7H65.2883V29.18H66.5483V26.66H65.2883V25.4H66.5483V24.14H67.8083V21.62H69.0683V19.1H70.3283V15.32H71.5883V12.8H65.2883V14.06H67.8083V16.58H66.5483V20.36H65.2883V22.88H64.0283V26.66H62.7683V29.18H61.5083V32.96H60.2483V36.74H61.5083V38H70.3283V36.74H72.8483V35.48H74.1083V34.22H75.3683V32.96H76.6283V30.44H77.8883V22.88H76.6283V21.62H75.3683V20.36H72.8483V21.62H70.3283V22.88H69.0683V24.14H67.8083V25.4H66.5483V26.66H67.8083V25.4ZM86.6928 27.92H85.4328V26.66H87.9528V25.4H86.6928V24.14H87.9528V21.62H89.2128V20.36H86.6928V21.62H82.9128V22.88H84.1728V26.66H82.9128V30.44H81.6528V32.96H80.3928V36.74H79.1328V38H82.9128V34.22H84.1728V31.7H85.4328V29.18H86.6928V27.92ZM89.2128 24.14H90.4728V22.88H94.2528V25.4H92.9928V29.18H91.7328V31.7H90.4728V35.48H89.2128V38H91.7328V36.74H92.9928V32.96H94.2528V29.18H95.5128V27.92H96.7728V26.66H95.5128V25.4H96.7728V21.62H95.5128V20.36H92.9928V21.62H90.4728V22.88H89.2128V24.14H87.9528V25.4H89.2128V24.14ZM98.0328 25.4H99.2928V24.14H100.553V22.88H103.073V27.92H101.813V30.44H100.553V34.22H99.2928V38H103.073V36.74H105.593V35.48H103.073V31.7H104.333V29.18H105.593V25.4H106.853V21.62H105.593V20.36H101.813V21.62H100.553V22.88H99.2928V24.14H98.0328V25.4H96.7728V26.66H98.0328V25.4ZM106.853 35.48V34.22H105.593V35.48H106.853ZM115.662 16.58H119.442V15.32H120.702V12.8H118.182V14.06H116.922V15.32H115.662V16.58ZM118.182 20.36H115.662V21.62H111.882V22.88H113.142V26.66H111.882V29.18H110.622V32.96H109.362V38H113.142V36.74H114.402V35.48H111.882V34.22H113.142V30.44H114.402V27.92H115.662V24.14H116.922V21.62H118.182V20.36ZM124.491 36.74H127.011V35.48H123.231V32.96H124.491V29.18H125.751V25.4H127.011V22.88H132.051V21.62H128.271V19.1H129.531V16.58H128.271V17.84H127.011V19.1H125.751V20.36H123.231V21.62H121.971V22.88H124.491V24.14H123.231V26.66H121.971V30.44H120.711V34.22H119.451V36.74H120.711V38H124.491V36.74Z" fill="white"/>
</svg>
