<svg width="340" height="170" viewBox="0 0 340 170" fill="none" xmlns="http://www.w3.org/2000/svg">
<path d="M161 0H155.493C153.338 0 151.662 1.9155 151.662 3.83099V7.18311C151.662 7.42254 151.662 7.90141 151.423 8.14085C150.704 11.2535 149.747 12.2113 146.634 12.9296C146.394 13.169 145.916 13.169 145.676 13.169H142.324C140.408 13.169 138.732 14.8451 138.732 17V26.338V39.2676V46.2113C138.732 46.6902 138.493 46.9296 138.493 47.4085C137.535 50.5211 136.577 51.2394 133.704 52.1972C133.225 52.1972 132.986 52.4366 132.507 52.4366H129.394C127.239 52.4366 125.563 54.1127 125.563 56.2676V65.3662V78.5352V85.4789C125.563 85.7183 125.563 86.1972 125.324 86.4366C124.606 89.5493 123.648 90.5071 120.535 91.4648C120.296 91.4648 119.817 91.4648 119.577 91.4648H116.225C114.31 91.4648 112.394 93.1409 112.394 95.2958V104.634V111.577C112.394 112.056 112.394 112.296 112.394 112.775C111.437 115.648 110.479 116.606 107.606 117.563C107.127 117.563 106.887 117.563 106.408 117.563H105.451C105.211 117.563 104.732 117.563 104.493 117.563C101.38 116.606 100.423 115.648 99.7043 112.775C99.4648 112.296 99.4648 112.056 99.4648 111.577V104.634V95.2958C99.4648 93.1409 97.7888 91.4648 95.6338 91.4648H92.5211C92.0423 91.4648 91.8028 91.4648 91.324 91.4648C88.2113 90.5071 87.493 89.5493 86.5352 86.4366C86.5352 86.1972 86.2958 85.7183 86.2958 85.4789V78.5352V65.3662V56.2676C86.2958 54.1127 84.6197 52.4366 82.4648 52.4366H79.3521C79.1127 52.4366 78.6338 52.1972 78.3944 52.1972C75.2817 51.2394 74.324 50.5211 73.3662 47.4085C73.3662 46.9296 73.3662 46.6902 73.3662 46.2113V39.2676V26.338V17C73.3662 14.8451 71.6902 13.169 69.5352 13.169H66.4225C65.9437 13.169 65.7042 13.169 65.2254 12.9296C62.1127 12.2113 61.3944 11.2535 60.4366 8.14085C60.1972 7.90141 60.1972 7.42254 60.1972 7.18311V3.83099C60.1972 1.9155 58.5211 0 56.3662 0H51.0986C48.9437 0 47.2676 1.9155 47.2676 3.83099V7.18311C47.2676 7.42254 47.0282 7.90141 47.0282 8.14085C46.0704 11.2535 45.3521 12.2113 42.2394 12.9296C41.7606 13.169 41.5211 13.169 41.0423 13.169H37.9296C35.7747 13.169 34.0986 14.8451 34.0986 17V22.5071C34.0986 24.4225 35.7747 26.338 37.9296 26.338H43.4366C45.5916 26.338 47.2676 24.4225 47.2676 22.5071V19.1549C47.2676 18.9155 47.2676 18.4366 47.2676 18.1972C48.2254 15.0845 49.1831 14.1268 52.2958 13.4085C52.5352 13.169 53.0141 13.169 53.2535 13.169H54.2113C54.4507 13.169 54.9296 13.169 55.169 13.4085C58.2817 14.1268 59.2394 15.0845 60.1972 18.1972C60.1972 18.4366 60.1972 18.9155 60.1972 19.1549V26.338V39.2676V46.2113C60.1972 46.6902 60.1972 46.9296 60.1972 47.4085C59.2394 50.5211 58.2817 51.2394 55.169 52.1972C54.9296 52.1972 54.4507 52.4366 54.2113 52.4366H51.0986C48.9437 52.4366 47.2676 54.1127 47.2676 56.2676V65.3662V78.5352V85.4789C47.2676 85.7183 47.0282 86.1972 47.0282 86.4366C46.0704 89.5493 45.3521 90.5071 42.2394 91.4648C41.7606 91.4648 41.5211 91.4648 41.0423 91.4648H37.9296C35.7747 91.4648 34.0986 93.1409 34.0986 95.2958V104.634V111.577C34.0986 112.056 34.0986 112.296 34.0986 112.775C33.1408 115.648 32.1831 116.606 29.0704 117.563C28.831 117.563 28.3521 117.563 28.1127 117.563H24.7606C22.8451 117.563 21.169 119.239 21.169 121.394V130.732V143.662V150.845C21.169 151.085 20.9296 151.563 20.9296 151.803C19.9718 154.916 19.2535 155.873 16.1408 156.592C15.662 156.831 15.4225 156.831 14.9437 156.831H11.831C9.67606 156.831 8 158.507 8 160.662V166.169C8 168.085 9.67606 170 11.831 170H17.338C19.493 170 21.169 168.085 21.169 166.169V162.817C21.169 162.577 21.169 162.099 21.169 161.859C22.1268 158.746 23.0845 157.789 25.9578 157.07C26.4366 156.831 26.6761 156.831 27.1549 156.831H30.2676C32.4225 156.831 34.0986 155.155 34.0986 153V143.662V130.732V123.789C34.0986 123.31 34.0986 123.07 34.338 122.592C35.2958 119.479 36.0141 118.761 39.1268 117.803C39.3662 117.803 39.8451 117.563 40.0845 117.563H43.4366C45.5916 117.563 47.2676 115.887 47.2676 113.972V104.634V97.6901C47.2676 97.2113 47.2676 96.9718 47.2676 96.493C48.2254 93.3803 49.1831 92.662 52.2958 91.7042C52.5352 91.7042 53.0141 91.4648 53.2535 91.4648H56.3662C58.5211 91.4648 60.1972 89.7887 60.1972 87.6338V78.5352V65.3662V58.4225C60.1972 57.9437 60.1972 57.7042 60.4366 57.4648C61.3944 54.3521 62.1127 53.3944 65.2254 52.4366C65.7042 52.4366 65.9437 52.4366 66.4225 52.4366H67.1409C67.6197 52.4366 68.0986 52.4366 68.338 52.4366C71.4507 53.3944 72.169 54.3521 73.1268 57.4648C73.3662 57.7042 73.3662 57.9437 73.3662 58.4225V65.3662V78.5352V87.6338C73.3662 89.7887 75.0423 91.4648 77.1972 91.4648H80.3099C80.7887 91.4648 81.0282 91.7042 81.2676 91.7042C84.3803 92.662 85.3381 93.3803 86.2958 96.493C86.2958 96.9718 86.2958 97.2113 86.2958 97.6901V104.634V113.972C86.2958 115.887 87.9719 117.563 90.1268 117.563H93.4789C93.7183 117.563 94.1972 117.803 94.4366 117.803C97.5493 118.761 98.2676 119.479 99.2254 122.592C99.4648 123.07 99.4648 123.31 99.4648 123.789V130.732V143.662V153C99.4648 155.155 101.141 156.831 103.296 156.831H106.408C106.887 156.831 107.127 156.831 107.606 157.07C110.479 157.789 111.437 158.746 112.394 161.859C112.394 162.099 112.394 162.577 112.394 162.817V166.169C112.394 168.085 114.31 170 116.225 170H121.732C123.887 170 125.563 168.085 125.563 166.169V162.817C125.563 162.577 125.563 162.099 125.803 161.859C126.521 158.746 127.479 157.789 130.592 157.07C130.831 156.831 131.31 156.831 131.549 156.831H134.901C136.817 156.831 138.732 155.155 138.732 153V147.493C138.732 145.577 136.817 143.662 134.901 143.662H129.394C127.239 143.662 125.563 145.577 125.563 147.493V150.845C125.563 151.085 125.563 151.563 125.324 151.803C124.606 154.916 123.648 155.873 120.535 156.592C120.296 156.831 119.817 156.831 119.577 156.831H118.62C118.141 156.831 117.901 156.831 117.423 156.592C114.549 155.873 113.592 154.916 112.634 151.803C112.634 151.563 112.394 151.085 112.394 150.845V143.662V130.732V123.789C112.394 123.31 112.634 123.07 112.634 122.592C113.592 119.479 114.549 118.761 117.423 117.803C117.901 117.803 118.141 117.563 118.62 117.563H121.732C123.887 117.563 125.563 115.887 125.563 113.972V104.634V97.6901C125.563 97.2113 125.563 96.9718 125.803 96.493C126.521 93.3803 127.479 92.662 130.592 91.7042C130.831 91.7042 131.31 91.4648 131.549 91.4648H134.901C136.817 91.4648 138.732 89.7887 138.732 87.6338V78.5352V65.3662V58.4225C138.732 57.9437 138.732 57.7042 138.732 57.4648C139.69 54.3521 140.648 53.3944 143.521 52.4366C144 52.4366 144.239 52.4366 144.718 52.4366H147.831C149.986 52.4366 151.662 50.7606 151.662 48.6056V39.2676V26.338V19.1549C151.662 18.9155 151.662 18.4366 151.901 18.1972C152.62 15.0845 153.578 14.1268 156.69 13.4085C156.93 13.169 157.408 13.169 157.648 13.169H161C163.155 13.169 164.831 11.493 164.831 9.33804V3.83099C164.831 1.9155 163.155 0 161 0Z" fill="#960090"/>
<path d="M262.394 39.2676V52.4366V65.3662V72.3099C262.394 72.7887 262.394 73.0282 262.155 73.5071C261.197 76.6197 260.479 77.338 257.366 78.2958C257.127 78.2958 256.648 78.5352 256.408 78.5352H253.056C250.901 78.5352 249.225 80.2113 249.225 82.3662V91.4648V104.634V111.577C249.225 111.817 249.225 112.296 249.225 112.535C248.268 115.648 247.31 116.606 244.197 117.563C243.958 117.563 243.718 117.563 243.239 117.563H240.127C237.972 117.563 236.296 119.239 236.296 121.394V130.732V143.662V150.845C236.296 151.085 236.296 151.563 236.056 151.803C235.099 154.916 234.38 155.873 231.268 156.592C231.028 156.831 230.549 156.831 230.07 156.831H223.127H210.197H197.028H184.099H176.915C176.676 156.831 176.197 156.831 175.958 156.592C172.845 155.873 171.887 154.916 171.169 151.803C170.93 151.563 170.93 151.085 170.93 150.845V143.662V130.732V117.563V104.634V97.6901C170.93 97.2113 170.93 96.9718 171.169 96.493C171.887 93.3803 172.845 92.662 175.958 91.7042C176.197 91.4648 176.676 91.4648 176.915 91.4648H180.268C182.423 91.4648 184.099 89.7887 184.099 87.6338V78.5352V65.3662V58.4225C184.099 57.9437 184.099 57.7042 184.099 57.2254C185.056 54.3521 186.014 53.3944 188.887 52.4366C189.366 52.4366 189.606 52.4366 190.085 52.4366H193.197C195.352 52.4366 197.028 50.5211 197.028 48.6056V39.2676V26.0986V19.1549C197.028 18.9155 197.028 18.4366 197.268 18.1972C198.225 15.0845 198.944 14.1268 202.056 13.4085C202.296 13.169 202.775 13.169 203.014 13.169H210.197H223.127H236.296H249.225H256.408C256.648 13.169 257.127 13.169 257.366 13.4085C260.479 14.1268 261.197 15.0845 262.155 18.1972C262.394 18.4366 262.394 18.9155 262.394 19.1549V26.0986V39.2676ZM267.423 12.9296C264.31 12.2113 263.352 11.2535 262.634 8.14085C262.394 7.90141 262.394 7.42254 262.394 7.18311V3.83099C262.394 1.67606 260.718 0 258.563 0H249.225H236.296H223.127H210.197H200.859C198.704 0 197.028 1.67606 197.028 3.83099V7.18311C197.028 7.42254 197.028 7.90141 196.789 8.14085C196.07 11.493 195.113 12.2113 191.521 13.169H187.69C185.775 13.169 184.099 14.8451 184.099 17V26.0986V39.2676V46.2113C184.099 46.6902 183.859 46.9296 183.859 47.4085C182.901 50.5211 181.944 51.4789 178.352 52.4366H174.761C172.606 52.4366 170.93 54.1127 170.93 56.0282V65.3662V78.5352V85.4789C170.93 85.7183 170.93 86.1972 170.69 86.4366C169.732 89.7887 169.014 90.5071 165.423 91.4648H161.592C159.676 91.4648 158 93.1409 158 95.2958V104.634V117.563V130.732V143.662V153C158 155.155 159.676 156.831 161.592 156.831H165.423C169.014 157.789 169.732 158.507 170.69 161.859C170.93 162.099 170.93 162.577 170.93 162.817V166.169C170.93 168.085 172.606 169.761 174.761 169.761H184.099H197.028H210.197H223.127H232.465C234.62 169.761 236.296 168.085 236.296 166.169V162.817C236.296 162.577 236.296 162.099 236.296 161.859C237.254 158.507 238.211 157.789 241.803 156.831H245.394C247.549 156.831 249.225 155.155 249.225 153V143.662V130.732V123.789C249.225 123.31 249.465 123.07 249.465 122.592C250.423 119.479 251.141 118.761 254.254 117.803C254.732 117.803 254.972 117.563 255.451 117.563H258.563C260.718 117.563 262.394 115.887 262.394 113.732V104.634V91.4648V84.5211C262.394 84.0423 262.394 83.8028 262.634 83.5634C263.352 80.4507 264.31 79.493 267.423 78.5352C267.662 78.5352 268.141 78.5352 268.38 78.5352H271.732C273.648 78.5352 275.324 76.8592 275.324 74.7042V65.3662V52.4366V39.2676V26.0986V17C275.324 14.8451 273.648 13.169 271.732 13.169H268.38C268.141 13.169 267.662 13.169 267.423 12.9296Z" fill="#960090"/>
<path d="M326.352 10.2958C325.634 11.7324 324.676 12.4507 322.521 12.9296C322.042 13.169 321.803 13.169 321.324 13.169H317.732C315.577 13.169 313.901 14.8451 313.901 17V20.1127C313.901 20.5916 313.662 20.831 313.662 21.3099C312.704 24.1831 311.986 25.1409 308.873 26.0986C308.394 26.0986 308.155 26.0986 307.676 26.0986H304.563C302.408 26.0986 300.732 28.0141 300.732 29.9296V35.4366C300.732 37.5916 302.408 39.2676 304.563 39.2676H310.07C312.225 39.2676 313.901 37.5916 313.901 35.4366V32.324C313.901 31.8451 313.901 31.6056 313.901 31.1268C314.859 28.2535 315.817 27.2958 318.93 26.338C319.169 26.338 319.648 26.0986 319.887 26.0986H320.845C321.084 26.0986 321.563 26.338 321.803 26.338C324.915 27.2958 325.873 28.2535 326.831 31.1268C326.831 31.6056 326.831 31.8451 326.831 32.324V39.2676V46.2113C326.831 46.6902 326.831 46.9296 326.831 47.4085C325.873 50.5211 324.915 51.2394 321.803 52.1972C321.563 52.1972 321.084 52.4366 320.845 52.4366H317.732C315.577 52.4366 313.901 54.1127 313.901 56.0282V65.3662V78.5352V85.4789C313.901 85.7183 313.662 86.1972 313.662 86.4366C312.704 89.5493 311.986 90.5071 308.873 91.4648C308.394 91.4648 308.155 91.4648 307.676 91.4648H304.563C302.408 91.4648 300.732 93.1409 300.732 95.2958V104.634V111.577C300.732 111.817 300.732 112.296 300.493 112.535C299.775 115.648 298.817 116.606 295.704 117.563C295.465 117.563 294.986 117.563 294.746 117.563H291.394C289.479 117.563 287.803 119.239 287.803 121.394V130.732V143.662V150.845C287.803 151.085 287.563 151.563 287.563 151.803C286.606 154.916 285.887 155.873 282.775 156.592C282.296 156.831 282.056 156.831 281.577 156.831H274.634H265.296C263.38 156.831 261.704 158.507 261.704 160.662V166.169C261.704 168.085 263.38 169.761 265.296 169.761H274.634H287.803H300.732H313.901H323C325.155 169.761 326.831 168.085 326.831 166.169V160.662C326.831 158.507 325.155 156.831 323 156.831H313.901H306.718C306.479 156.831 306 156.831 305.761 156.592C302.648 155.873 301.93 154.916 300.972 151.803C300.732 151.563 300.732 151.085 300.732 150.845V143.662V130.732V123.789C300.732 123.31 300.732 123.07 300.972 122.592C301.93 119.479 302.648 118.761 305.761 117.803C306 117.803 306.479 117.563 306.718 117.563H310.07C312.225 117.563 313.901 115.887 313.901 113.732V104.634V97.6901C313.901 97.2113 313.901 96.9718 313.901 96.493C314.859 93.3803 315.817 92.662 318.93 91.7042C319.169 91.4648 319.648 91.4648 319.887 91.4648H323C325.155 91.4648 326.831 89.7887 326.831 87.6338V78.5352V65.3662V58.4225C326.831 57.9437 326.831 57.7042 327.07 57.2254C328.028 54.3521 328.746 53.3944 331.859 52.4366C332.338 52.4366 332.577 52.4366 333.056 52.4366H336.169C338.324 52.4366 340 50.5211 340 48.6056V39.2676V26.0986V13.169V3.83099C340 1.67606 338.324 0 336.169 0H330.662C328.507 0 326.831 1.67606 326.831 3.83099V8.61972C326.831 9.0986 326.831 9.8169 326.352 10.2958Z" fill="#960090"/>
<path d="M153 0H147.493C145.338 0 143.662 1.9155 143.662 3.83099V7.18311C143.662 7.42254 143.662 7.90141 143.423 8.14085C142.704 11.2535 141.747 12.2113 138.634 12.9296C138.394 13.169 137.916 13.169 137.676 13.169H134.324C132.408 13.169 130.732 14.8451 130.732 17V26.338V39.2676V46.2113C130.732 46.6902 130.493 46.9296 130.493 47.4085C129.535 50.5211 128.577 51.2394 125.704 52.1972C125.225 52.1972 124.986 52.4366 124.507 52.4366H121.394C119.239 52.4366 117.563 54.1127 117.563 56.2676V65.3662V78.5352V85.4789C117.563 85.7183 117.563 86.1972 117.324 86.4366C116.606 89.5493 115.648 90.5071 112.535 91.4648C112.296 91.4648 111.817 91.4648 111.577 91.4648H108.225C106.31 91.4648 104.394 93.1409 104.394 95.2958V104.634V111.577C104.394 112.056 104.394 112.296 104.394 112.775C103.437 115.648 102.479 116.606 99.6057 117.563C99.1268 117.563 98.8874 117.563 98.4085 117.563H97.4507C97.2113 117.563 96.7324 117.563 96.493 117.563C93.3803 116.606 92.4226 115.648 91.7043 112.775C91.4648 112.296 91.4648 112.056 91.4648 111.577V104.634V95.2958C91.4648 93.1409 89.7888 91.4648 87.6338 91.4648H84.5211C84.0423 91.4648 83.8028 91.4648 83.324 91.4648C80.2113 90.5071 79.493 89.5493 78.5352 86.4366C78.5352 86.1972 78.2958 85.7183 78.2958 85.4789V78.5352V65.3662V56.2676C78.2958 54.1127 76.6197 52.4366 74.4648 52.4366H71.3521C71.1127 52.4366 70.6338 52.1972 70.3944 52.1972C67.2817 51.2394 66.324 50.5211 65.3662 47.4085C65.3662 46.9296 65.3662 46.6902 65.3662 46.2113V39.2676V26.338V17C65.3662 14.8451 63.6902 13.169 61.5352 13.169H58.4225C57.9437 13.169 57.7042 13.169 57.2254 12.9296C54.1127 12.2113 53.3944 11.2535 52.4366 8.14085C52.1972 7.90141 52.1972 7.42254 52.1972 7.18311V3.83099C52.1972 1.9155 50.5211 0 48.3662 0H43.0986C40.9437 0 39.2676 1.9155 39.2676 3.83099V7.18311C39.2676 7.42254 39.0282 7.90141 39.0282 8.14085C38.0704 11.2535 37.3521 12.2113 34.2394 12.9296C33.7606 13.169 33.5211 13.169 33.0423 13.169H29.9296C27.7747 13.169 26.0986 14.8451 26.0986 17V22.5071C26.0986 24.4225 27.7747 26.338 29.9296 26.338H35.4366C37.5916 26.338 39.2676 24.4225 39.2676 22.5071V19.1549C39.2676 18.9155 39.2676 18.4366 39.2676 18.1972C40.2254 15.0845 41.1831 14.1268 44.2958 13.4085C44.5352 13.169 45.0141 13.169 45.2535 13.169H46.2113C46.4507 13.169 46.9296 13.169 47.169 13.4085C50.2817 14.1268 51.2394 15.0845 52.1972 18.1972C52.1972 18.4366 52.1972 18.9155 52.1972 19.1549V26.338V39.2676V46.2113C52.1972 46.6902 52.1972 46.9296 52.1972 47.4085C51.2394 50.5211 50.2817 51.2394 47.169 52.1972C46.9296 52.1972 46.4507 52.4366 46.2113 52.4366H43.0986C40.9437 52.4366 39.2676 54.1127 39.2676 56.2676V65.3662V78.5352V85.4789C39.2676 85.7183 39.0282 86.1972 39.0282 86.4366C38.0704 89.5493 37.3521 90.5071 34.2394 91.4648C33.7606 91.4648 33.5211 91.4648 33.0423 91.4648H29.9296C27.7747 91.4648 26.0986 93.1409 26.0986 95.2958V104.634V111.577C26.0986 112.056 26.0986 112.296 26.0986 112.775C25.1408 115.648 24.1831 116.606 21.0704 117.563C20.831 117.563 20.3521 117.563 20.1127 117.563H16.7606C14.8451 117.563 13.169 119.239 13.169 121.394V130.732V143.662V150.845C13.169 151.085 12.9296 151.563 12.9296 151.803C11.9718 154.916 11.2535 155.873 8.14085 156.592C7.66197 156.831 7.42254 156.831 6.94366 156.831H3.83099C1.67606 156.831 0 158.507 0 160.662V166.169C0 168.085 1.67606 170 3.83099 170H9.33803C11.493 170 13.169 168.085 13.169 166.169V162.817C13.169 162.577 13.169 162.099 13.169 161.859C14.1268 158.746 15.0845 157.789 17.9578 157.07C18.4366 156.831 18.6761 156.831 19.1549 156.831H22.2676C24.4225 156.831 26.0986 155.155 26.0986 153V143.662V130.732V123.789C26.0986 123.31 26.0986 123.07 26.338 122.592C27.2958 119.479 28.0141 118.761 31.1268 117.803C31.3662 117.803 31.8451 117.563 32.0845 117.563H35.4366C37.5916 117.563 39.2676 115.887 39.2676 113.972V104.634V97.6901C39.2676 97.2113 39.2676 96.9718 39.2676 96.493C40.2254 93.3803 41.1831 92.662 44.2958 91.7042C44.5352 91.7042 45.0141 91.4648 45.2535 91.4648H48.3662C50.5211 91.4648 52.1972 89.7887 52.1972 87.6338V78.5352V65.3662V58.4225C52.1972 57.9437 52.1972 57.7042 52.4366 57.4648C53.3944 54.3521 54.1127 53.3944 57.2254 52.4366C57.7042 52.4366 57.9437 52.4366 58.4225 52.4366H59.1409C59.6197 52.4366 60.0986 52.4366 60.338 52.4366C63.4507 53.3944 64.169 54.3521 65.1268 57.4648C65.3662 57.7042 65.3662 57.9437 65.3662 58.4225V65.3662V78.5352V87.6338C65.3662 89.7887 67.0423 91.4648 69.1972 91.4648H72.3099C72.7887 91.4648 73.0282 91.7042 73.2676 91.7042C76.3803 92.662 77.3381 93.3803 78.2958 96.493C78.2958 96.9718 78.2958 97.2113 78.2958 97.6901V104.634V113.972C78.2958 115.887 79.9719 117.563 82.1268 117.563H85.4789C85.7183 117.563 86.1972 117.803 86.4366 117.803C89.5493 118.761 90.2676 119.479 91.2254 122.592C91.4648 123.07 91.4648 123.31 91.4648 123.789V130.732V143.662V153C91.4648 155.155 93.1409 156.831 95.2958 156.831H98.4085C98.8874 156.831 99.1268 156.831 99.6057 157.07C102.479 157.789 103.437 158.746 104.394 161.859C104.394 162.099 104.394 162.577 104.394 162.817V166.169C104.394 168.085 106.31 170 108.225 170H113.732C115.887 170 117.563 168.085 117.563 166.169V162.817C117.563 162.577 117.563 162.099 117.803 161.859C118.521 158.746 119.479 157.789 122.592 157.07C122.831 156.831 123.31 156.831 123.549 156.831H126.901C128.817 156.831 130.732 155.155 130.732 153V147.493C130.732 145.577 128.817 143.662 126.901 143.662H121.394C119.239 143.662 117.563 145.577 117.563 147.493V150.845C117.563 151.085 117.563 151.563 117.324 151.803C116.606 154.916 115.648 155.873 112.535 156.592C112.296 156.831 111.817 156.831 111.577 156.831H110.62C110.141 156.831 109.901 156.831 109.423 156.592C106.549 155.873 105.592 154.916 104.634 151.803C104.634 151.563 104.394 151.085 104.394 150.845V143.662V130.732V123.789C104.394 123.31 104.634 123.07 104.634 122.592C105.592 119.479 106.549 118.761 109.423 117.803C109.901 117.803 110.141 117.563 110.62 117.563H113.732C115.887 117.563 117.563 115.887 117.563 113.972V104.634V97.6901C117.563 97.2113 117.563 96.9718 117.803 96.493C118.521 93.3803 119.479 92.662 122.592 91.7042C122.831 91.7042 123.31 91.4648 123.549 91.4648H126.901C128.817 91.4648 130.732 89.7887 130.732 87.6338V78.5352V65.3662V58.4225C130.732 57.9437 130.732 57.7042 130.732 57.4648C131.69 54.3521 132.648 53.3944 135.521 52.4366C136 52.4366 136.239 52.4366 136.718 52.4366H139.831C141.986 52.4366 143.662 50.7606 143.662 48.6056V39.2676V26.338V19.1549C143.662 18.9155 143.662 18.4366 143.901 18.1972C144.62 15.0845 145.578 14.1268 148.69 13.4085C148.93 13.169 149.408 13.169 149.648 13.169H153C155.155 13.169 156.831 11.493 156.831 9.33804V3.83099C156.831 1.9155 155.155 0 153 0Z" fill="white"/>
<path d="M254.394 39.2676V52.4366V65.3662V72.3099C254.394 72.7887 254.394 73.0282 254.155 73.5071C253.197 76.6197 252.479 77.338 249.366 78.2958C249.127 78.2958 248.648 78.5352 248.408 78.5352H245.056C242.901 78.5352 241.225 80.2113 241.225 82.3662V91.4648V104.634V111.577C241.225 111.817 241.225 112.296 241.225 112.535C240.268 115.648 239.31 116.606 236.197 117.563C235.958 117.563 235.718 117.563 235.239 117.563H232.127C229.972 117.563 228.296 119.239 228.296 121.394V130.732V143.662V150.845C228.296 151.085 228.296 151.563 228.056 151.803C227.099 154.916 226.38 155.873 223.268 156.592C223.028 156.831 222.549 156.831 222.07 156.831H215.127H202.197H189.028H176.099H168.915C168.676 156.831 168.197 156.831 167.958 156.592C164.845 155.873 163.887 154.916 163.169 151.803C162.93 151.563 162.93 151.085 162.93 150.845V143.662V130.732V117.563V104.634V97.6901C162.93 97.2113 162.93 96.9718 163.169 96.493C163.887 93.3803 164.845 92.662 167.958 91.7042C168.197 91.4648 168.676 91.4648 168.915 91.4648H172.268C174.423 91.4648 176.099 89.7887 176.099 87.6338V78.5352V65.3662V58.4225C176.099 57.9437 176.099 57.7042 176.099 57.2254C177.056 54.3521 178.014 53.3944 180.887 52.4366C181.366 52.4366 181.606 52.4366 182.085 52.4366H185.197C187.352 52.4366 189.028 50.5211 189.028 48.6056V39.2676V26.0986V19.1549C189.028 18.9155 189.028 18.4366 189.268 18.1972C190.225 15.0845 190.944 14.1268 194.056 13.4085C194.296 13.169 194.775 13.169 195.014 13.169H202.197H215.127H228.296H241.225H248.408C248.648 13.169 249.127 13.169 249.366 13.4085C252.479 14.1268 253.197 15.0845 254.155 18.1972C254.394 18.4366 254.394 18.9155 254.394 19.1549V26.0986V39.2676ZM259.423 12.9296C256.31 12.2113 255.352 11.2535 254.634 8.14085C254.394 7.90141 254.394 7.42254 254.394 7.18311V3.83099C254.394 1.67606 252.718 0 250.563 0H241.225H228.296H215.127H202.197H192.859C190.704 0 189.028 1.67606 189.028 3.83099V7.18311C189.028 7.42254 189.028 7.90141 188.789 8.14085C188.07 11.493 187.113 12.2113 183.521 13.169H179.69C177.775 13.169 176.099 14.8451 176.099 17V26.0986V39.2676V46.2113C176.099 46.6902 175.859 46.9296 175.859 47.4085C174.901 50.5211 173.944 51.4789 170.352 52.4366H166.761C164.606 52.4366 162.93 54.1127 162.93 56.0282V65.3662V78.5352V85.4789C162.93 85.7183 162.93 86.1972 162.69 86.4366C161.732 89.7887 161.014 90.5071 157.423 91.4648H153.592C151.676 91.4648 150 93.1409 150 95.2958V104.634V117.563V130.732V143.662V153C150 155.155 151.676 156.831 153.592 156.831H157.423C161.014 157.789 161.732 158.507 162.69 161.859C162.93 162.099 162.93 162.577 162.93 162.817V166.169C162.93 168.085 164.606 169.761 166.761 169.761H176.099H189.028H202.197H215.127H224.465C226.62 169.761 228.296 168.085 228.296 166.169V162.817C228.296 162.577 228.296 162.099 228.296 161.859C229.254 158.507 230.211 157.789 233.803 156.831H237.394C239.549 156.831 241.225 155.155 241.225 153V143.662V130.732V123.789C241.225 123.31 241.465 123.07 241.465 122.592C242.423 119.479 243.141 118.761 246.254 117.803C246.732 117.803 246.972 117.563 247.451 117.563H250.563C252.718 117.563 254.394 115.887 254.394 113.732V104.634V91.4648V84.5211C254.394 84.0423 254.394 83.8028 254.634 83.5634C255.352 80.4507 256.31 79.493 259.423 78.5352C259.662 78.5352 260.141 78.5352 260.38 78.5352H263.732C265.648 78.5352 267.324 76.8592 267.324 74.7042V65.3662V52.4366V39.2676V26.0986V17C267.324 14.8451 265.648 13.169 263.732 13.169H260.38C260.141 13.169 259.662 13.169 259.423 12.9296Z" fill="white"/>
<path d="M318.457 10.2958C317.738 11.7324 316.781 12.4507 314.626 12.9296C314.147 13.169 313.907 13.169 313.429 13.169H309.837C307.682 13.169 306.006 14.8451 306.006 17V20.1127C306.006 20.5916 305.767 20.831 305.767 21.3099C304.809 24.1831 304.091 25.1409 300.978 26.0986C300.499 26.0986 300.26 26.0986 299.781 26.0986H296.668C294.513 26.0986 292.837 28.0141 292.837 29.9296V35.4366C292.837 37.5916 294.513 39.2676 296.668 39.2676H302.175C304.33 39.2676 306.006 37.5916 306.006 35.4366V32.324C306.006 31.8451 306.006 31.6056 306.006 31.1268C306.964 28.2535 307.922 27.2958 311.034 26.338C311.274 26.338 311.753 26.0986 311.992 26.0986H312.95C313.189 26.0986 313.668 26.338 313.907 26.338C317.02 27.2958 317.978 28.2535 318.936 31.1268C318.936 31.6056 318.936 31.8451 318.936 32.324V39.2676V46.2113C318.936 46.6902 318.936 46.9296 318.936 47.4085C317.978 50.5211 317.02 51.2394 313.907 52.1972C313.668 52.1972 313.189 52.4366 312.95 52.4366H309.837C307.682 52.4366 306.006 54.1127 306.006 56.0282V65.3662V78.5352V85.4789C306.006 85.7183 305.767 86.1972 305.767 86.4366C304.809 89.5493 304.091 90.5071 300.978 91.4648C300.499 91.4648 300.26 91.4648 299.781 91.4648H296.668C294.513 91.4648 292.837 93.1409 292.837 95.2958V104.634V111.577C292.837 111.817 292.837 112.296 292.598 112.535C291.879 115.648 290.922 116.606 287.809 117.563C287.569 117.563 287.091 117.563 286.851 117.563H283.499C281.584 117.563 279.907 119.239 279.907 121.394V130.732V143.662V150.845C279.907 151.085 279.668 151.563 279.668 151.803C278.71 154.916 277.992 155.873 274.879 156.592C274.4 156.831 274.161 156.831 273.682 156.831H266.738H257.4C255.485 156.831 253.809 158.507 253.809 160.662V166.169C253.809 168.085 255.485 169.761 257.4 169.761H266.738H279.907H292.837H306.006H315.105C317.26 169.761 318.936 168.085 318.936 166.169V160.662C318.936 158.507 317.26 156.831 315.105 156.831H306.006H298.823C298.583 156.831 298.105 156.831 297.865 156.592C294.752 155.873 294.034 154.916 293.076 151.803C292.837 151.563 292.837 151.085 292.837 150.845V143.662V130.732V123.789C292.837 123.31 292.837 123.07 293.076 122.592C294.034 119.479 294.752 118.761 297.865 117.803C298.105 117.803 298.583 117.563 298.823 117.563H302.175C304.33 117.563 306.006 115.887 306.006 113.732V104.634V97.6901C306.006 97.2113 306.006 96.9718 306.006 96.493C306.964 93.3803 307.922 92.662 311.034 91.7042C311.274 91.4648 311.753 91.4648 311.992 91.4648H315.105C317.26 91.4648 318.936 89.7887 318.936 87.6338V78.5352V65.3662V58.4225C318.936 57.9437 318.936 57.7042 319.175 57.2254C320.133 54.3521 320.851 53.3944 323.964 52.4366C324.443 52.4366 324.682 52.4366 325.161 52.4366H328.274C330.429 52.4366 332.105 50.5211 332.105 48.6056V39.2676V26.0986V13.169V3.83099C332.105 1.67606 330.429 0 328.274 0H322.767C320.612 0 318.936 1.67606 318.936 3.83099V8.61972C318.936 9.0986 318.936 9.8169 318.457 10.2958Z" fill="white"/>
</svg>
