<svg width="75" height="70" viewBox="0 0 75 70" fill="none" xmlns="http://www.w3.org/2000/svg">
<path fill-rule="evenodd" clip-rule="evenodd" d="M15 0H10V5L5.00012 5V9.99951V10V14.9995V19.9995H10H10.0001H15V14.9995V10V9.99951V5V0ZM15.0001 0H20.0001V5V9.99951V10V14.9995V19.9995H15.0001V14.9995V10V9.99951V5V0ZM25.0002 0H20.0002V5V9.99951V10V14.9995V19.9995H25.0001H25.0002H30.0001V14.9995V10V9.99951V5L25.0002 5V0ZM50 0H55V5V10V15V20H50.0001H50H45.0001V15V10V5L50 5V0ZM40 10H35.0002V9.99951H30.0002V14.9995V19.9995H35.0002V20H40H40.0002H45V15V10H40.0002H40ZM45 30V25.0005V20.0005H40.0002H40H35.0002H30.0002V25.0005V30V30.0005V35V40V44.9995V45V49.9995V54.9995H35.0002H40V55H45V50V45V40V35V30.0005V30ZM60.0001 0H55.0001V5V10V15V20H60.0001V15V10V5V0ZM60.0002 0H65.0002V5L70.0001 5V10V15V20H65.0002H65.0001H60.0002V15V10V5V0ZM70.0002 20V15V10H75.0002V15V20H70.0002ZM45.0001 30.0005V30V25.0005V20.0005H50H50.0001H55V25.0005V30V30.0005V35V40V45V50V55H50.0001H50H45.0001V50V45V40V35V30.0005ZM55.0001 35V30.0005V30V25.0005V20.0005H60.0001V25.0005V30V30.0005V35V40V45V50H55.0001V45V40V35ZM60.0002 30V30.0005V35V40V45H65.0002V40H70.0001V35V30.0005V30V25.0005V20.0005H65.0002H65.0001H60.0002V25.0005V30ZM70.0002 30.0005V35H75.0002V30.0005V30V25.0005V20.0005H70.0002V25.0005V30V30.0005ZM40.0002 55.0005H45V60.0005V65.0005H40.0002V70H35.0002V65.0005H30.0002V60.0005V55.0005H35.0002H40H40.0002ZM50.0001 55.0005H45.0001V60.0005H50.0001V55.0005ZM5 19.9995V14.9995V9.99951H0V14.9995V19.9995H5ZM30.0001 30.0005V30V25.0005V20.0005H25.0002H25.0001H20.0002V25.0005V30V30.0005V35V40V44.9995V45V49.9995V54.9995H25.0001H25.0002H30.0001V49.9995V45V44.9995V40V35V30.0005ZM20.0001 35V30.0005V30V25.0005V20.0005H15.0001V25.0005V30V30.0005V35V40V44.9995V45V49.9995H20.0001V45V44.9995V40V35ZM15 30V30.0005V35V40V45H10V40H5.00012V35V30.0005V30V25.0005V20.0005H10H10.0001H15V25.0005V30ZM5 30.0005V35H0V30.0005V30V25.0005V20.0005H5V25.0005V30V30.0005ZM25.0001 55.0005H30.0001V60.0005H25.0001V55.0005Z" fill="white"/>
</svg>
